<svg width="239" height="167" viewBox="0 0 239 167" fill="none" xmlns="http://www.w3.org/2000/svg">
<path d="M57.4375 64.125V81H20.5625V64.125H57.4375ZM27.5625 28V119H6.1875V28H27.5625ZM71.875 28V119H50.5V28H71.875ZM132.162 28V119H110.85V28H132.162ZM209.075 28V119H187.637V28H209.075ZM231.137 28V44.9375H166.2V28H231.137Z" fill="#2C2C2C"/>
<path d="M7.5625 137.25H15.3438C16.8646 137.25 18.1823 137.51 19.2969 138.031C20.4115 138.552 21.2656 139.323 21.8594 140.344C22.4635 141.365 22.7656 142.625 22.7656 144.125C22.7656 145.427 22.599 146.516 22.2656 147.391C21.9427 148.266 21.4844 148.99 20.8906 149.562C20.2969 150.125 19.599 150.589 18.7969 150.953L17.0625 151.969H10.9531L10.9219 147.734H15.2188C15.7083 147.734 16.1146 147.609 16.4375 147.359C16.7604 147.109 17 146.755 17.1562 146.297C17.3229 145.828 17.4062 145.271 17.4062 144.625C17.4062 143.969 17.3281 143.406 17.1719 142.938C17.0156 142.469 16.7865 142.109 16.4844 141.859C16.1927 141.609 15.8125 141.484 15.3438 141.484H12.9062V160H7.5625V137.25ZM17.6406 160L13.6094 149.938L19.2656 149.906L23.375 159.766V160H17.6406ZM46.1806 155.781V160H36.2275V155.781H46.1806ZM38.0869 137.25V160H32.7431V137.25H38.0869ZM44.8838 146.281V150.359H36.2275V146.281H44.8838ZM46.2275 137.25V141.484H36.2275V137.25H46.2275ZM71.7831 137.25V160H66.455L60.7519 145.844V160H55.4081V137.25H60.7519L66.455 151.406V137.25H71.7831ZM91.37 137.25V160H86.0106V137.25H91.37ZM96.8856 137.25V141.484H80.6513V137.25H96.8856ZM128.309 142.031L124.075 160H118.325L125.341 137.25H128.934L128.309 142.031ZM131.622 160L127.387 142.031L126.684 137.25H130.341L137.372 160H131.622ZM131.794 151.516V155.75H121.934V151.516H131.794ZM171.139 152.297H176.483C176.494 154.005 176.16 155.464 175.483 156.672C174.816 157.87 173.874 158.776 172.655 159.391C171.436 160.005 170.009 160.312 168.374 160.312C167.051 160.312 165.879 160.083 164.858 159.625C163.837 159.167 162.978 158.5 162.28 157.625C161.582 156.75 161.056 155.693 160.702 154.453C160.348 153.203 160.171 151.786 160.171 150.203V147.031C160.171 145.458 160.358 144.047 160.733 142.797C161.119 141.547 161.66 140.484 162.358 139.609C163.066 138.734 163.921 138.068 164.921 137.609C165.931 137.151 167.056 136.922 168.296 136.922C170.035 136.922 171.504 137.25 172.702 137.906C173.91 138.552 174.837 139.49 175.483 140.719C176.129 141.938 176.473 143.401 176.514 145.109H171.171C171.223 144.12 171.16 143.344 170.983 142.781C170.806 142.208 170.494 141.807 170.046 141.578C169.608 141.339 169.025 141.219 168.296 141.219C167.796 141.219 167.374 141.318 167.03 141.516C166.686 141.714 166.41 142.042 166.202 142.5C165.994 142.948 165.842 143.542 165.749 144.281C165.655 145.021 165.608 145.927 165.608 147V150.203C165.608 151.297 165.645 152.214 165.717 152.953C165.79 153.693 165.926 154.292 166.124 154.75C166.332 155.198 166.613 155.521 166.967 155.719C167.332 155.917 167.801 156.016 168.374 156.016C168.978 156.016 169.494 155.917 169.921 155.719C170.348 155.51 170.671 155.141 170.889 154.609C171.108 154.068 171.191 153.297 171.139 152.297ZM194.492 142.031L190.258 160H184.508L191.523 137.25H195.117L194.492 142.031ZM197.804 160L193.57 142.031L192.867 137.25H196.523L203.554 160H197.804ZM197.976 151.516V155.75H188.117V151.516H197.976ZM212.329 137.25H220.11C221.631 137.25 222.949 137.51 224.063 138.031C225.178 138.552 226.032 139.323 226.626 140.344C227.23 141.365 227.532 142.625 227.532 144.125C227.532 145.427 227.365 146.516 227.032 147.391C226.709 148.266 226.251 148.99 225.657 149.562C225.063 150.125 224.365 150.589 223.563 150.953L221.829 151.969H215.719L215.688 147.734H219.985C220.475 147.734 220.881 147.609 221.204 147.359C221.527 147.109 221.766 146.755 221.923 146.297C222.089 145.828 222.173 145.271 222.173 144.625C222.173 143.969 222.094 143.406 221.938 142.938C221.782 142.469 221.553 142.109 221.251 141.859C220.959 141.609 220.579 141.484 220.11 141.484H217.673V160H212.329V137.25ZM222.407 160L218.376 149.938L224.032 149.906L228.141 159.766V160H222.407Z" fill="#2C2C2C"/>
</svg>
